<mxfile host="Electron" modified="2024-03-27T21:41:10.910Z" agent="Mozilla/5.0 (Windows NT 10.0; Win64; x64) AppleWebKit/537.36 (KHTML, like Gecko) draw.io/24.0.4 Chrome/120.0.6099.109 Electron/28.1.0 Safari/537.36" etag="FnR87kzS1ZpilwHfdPNo" version="24.0.4" type="device">
  <diagram name="PÃ¡gina-1" id="RDinv8P8d8wfcmwiv2I8">
    <mxGraphModel dx="874" dy="542" grid="1" gridSize="10" guides="1" tooltips="1" connect="1" arrows="1" fold="1" page="1" pageScale="1" pageWidth="827" pageHeight="1169" background="#4D4D4D" math="0" shadow="1">
      <root>
        <mxCell id="0" />
        <mxCell id="1" parent="0" />
        <mxCell id="qLOr1LEOJIK6eyIxOB5J-18" style="edgeStyle=orthogonalEdgeStyle;rounded=0;orthogonalLoop=1;jettySize=auto;html=1;labelBackgroundColor=none;fontColor=default;" edge="1" parent="1" source="qLOr1LEOJIK6eyIxOB5J-2" target="qLOr1LEOJIK6eyIxOB5J-13">
          <mxGeometry relative="1" as="geometry">
            <Array as="points">
              <mxPoint x="340" y="345" />
              <mxPoint x="194" y="345" />
            </Array>
          </mxGeometry>
        </mxCell>
        <mxCell id="qLOr1LEOJIK6eyIxOB5J-36" style="edgeStyle=orthogonalEdgeStyle;rounded=0;orthogonalLoop=1;jettySize=auto;html=1;labelBackgroundColor=none;fontColor=default;" edge="1" parent="1" source="qLOr1LEOJIK6eyIxOB5J-2" target="qLOr1LEOJIK6eyIxOB5J-31">
          <mxGeometry relative="1" as="geometry" />
        </mxCell>
        <mxCell id="qLOr1LEOJIK6eyIxOB5J-2" value="Biblioteca" style="swimlane;fontStyle=0;childLayout=stackLayout;horizontal=1;startSize=30;horizontalStack=0;resizeParent=1;resizeParentMax=0;resizeLast=0;collapsible=1;marginBottom=0;whiteSpace=wrap;html=1;hachureGap=4;fontFamily=Helvetica;labelBackgroundColor=none;" vertex="1" parent="1">
          <mxGeometry x="300" y="133" width="200" height="180" as="geometry" />
        </mxCell>
        <mxCell id="qLOr1LEOJIK6eyIxOB5J-4" value="&amp;lt;&amp;lt;create&amp;gt;&amp;gt; Biblioteca()" style="text;strokeColor=none;fillColor=none;align=left;verticalAlign=middle;spacingLeft=4;spacingRight=4;overflow=hidden;points=[[0,0.5],[1,0.5]];portConstraint=eastwest;rotatable=0;whiteSpace=wrap;html=1;fontFamily=Helvetica;labelBackgroundColor=none;" vertex="1" parent="qLOr1LEOJIK6eyIxOB5J-2">
          <mxGeometry y="30" width="200" height="30" as="geometry" />
        </mxCell>
        <mxCell id="qLOr1LEOJIK6eyIxOB5J-10" value="+ agregarSocio (socio : Socio)&amp;nbsp;" style="text;strokeColor=none;fillColor=none;align=left;verticalAlign=middle;spacingLeft=4;spacingRight=4;overflow=hidden;points=[[0,0.5],[1,0.5]];portConstraint=eastwest;rotatable=0;whiteSpace=wrap;html=1;fontFamily=Helvetica;labelBackgroundColor=none;" vertex="1" parent="qLOr1LEOJIK6eyIxOB5J-2">
          <mxGeometry y="60" width="200" height="30" as="geometry" />
        </mxCell>
        <mxCell id="qLOr1LEOJIK6eyIxOB5J-5" value="+ exportarSocio() : String" style="text;strokeColor=none;fillColor=none;align=left;verticalAlign=middle;spacingLeft=4;spacingRight=4;overflow=hidden;points=[[0,0.5],[1,0.5]];portConstraint=eastwest;rotatable=0;whiteSpace=wrap;html=1;fontFamily=Helvetica;labelBackgroundColor=none;" vertex="1" parent="qLOr1LEOJIK6eyIxOB5J-2">
          <mxGeometry y="90" width="200" height="30" as="geometry" />
        </mxCell>
        <mxCell id="qLOr1LEOJIK6eyIxOB5J-12" value="+ getExporter() : VoorheesExporter" style="text;strokeColor=none;fillColor=none;align=left;verticalAlign=middle;spacingLeft=4;spacingRight=4;overflow=hidden;points=[[0,0.5],[1,0.5]];portConstraint=eastwest;rotatable=0;whiteSpace=wrap;html=1;fontFamily=Helvetica;labelBackgroundColor=none;" vertex="1" parent="qLOr1LEOJIK6eyIxOB5J-2">
          <mxGeometry y="120" width="200" height="30" as="geometry" />
        </mxCell>
        <mxCell id="qLOr1LEOJIK6eyIxOB5J-11" value="+ setExporter(VoorheesExporter)" style="text;strokeColor=none;fillColor=none;align=left;verticalAlign=middle;spacingLeft=4;spacingRight=4;overflow=hidden;points=[[0,0.5],[1,0.5]];portConstraint=eastwest;rotatable=0;whiteSpace=wrap;html=1;fontFamily=Helvetica;labelBackgroundColor=none;" vertex="1" parent="qLOr1LEOJIK6eyIxOB5J-2">
          <mxGeometry y="150" width="200" height="30" as="geometry" />
        </mxCell>
        <mxCell id="qLOr1LEOJIK6eyIxOB5J-13" value="Socio" style="swimlane;fontStyle=1;align=center;verticalAlign=top;childLayout=stackLayout;horizontal=1;startSize=26;horizontalStack=0;resizeParent=1;resizeParentMax=0;resizeLast=0;collapsible=1;marginBottom=0;whiteSpace=wrap;html=1;labelBackgroundColor=none;" vertex="1" parent="1">
          <mxGeometry x="114" y="370" width="200" height="260" as="geometry" />
        </mxCell>
        <mxCell id="qLOr1LEOJIK6eyIxOB5J-14" value="- nombre : String" style="text;strokeColor=none;fillColor=none;align=left;verticalAlign=top;spacingLeft=4;spacingRight=4;overflow=hidden;rotatable=0;points=[[0,0.5],[1,0.5]];portConstraint=eastwest;whiteSpace=wrap;html=1;labelBackgroundColor=none;" vertex="1" parent="qLOr1LEOJIK6eyIxOB5J-13">
          <mxGeometry y="26" width="200" height="26" as="geometry" />
        </mxCell>
        <mxCell id="qLOr1LEOJIK6eyIxOB5J-21" value="- legajo : String" style="text;strokeColor=none;fillColor=none;align=left;verticalAlign=top;spacingLeft=4;spacingRight=4;overflow=hidden;rotatable=0;points=[[0,0.5],[1,0.5]];portConstraint=eastwest;whiteSpace=wrap;html=1;labelBackgroundColor=none;" vertex="1" parent="qLOr1LEOJIK6eyIxOB5J-13">
          <mxGeometry y="52" width="200" height="26" as="geometry" />
        </mxCell>
        <mxCell id="qLOr1LEOJIK6eyIxOB5J-22" value="- email : String" style="text;strokeColor=none;fillColor=none;align=left;verticalAlign=top;spacingLeft=4;spacingRight=4;overflow=hidden;rotatable=0;points=[[0,0.5],[1,0.5]];portConstraint=eastwest;whiteSpace=wrap;html=1;labelBackgroundColor=none;" vertex="1" parent="qLOr1LEOJIK6eyIxOB5J-13">
          <mxGeometry y="78" width="200" height="26" as="geometry" />
        </mxCell>
        <mxCell id="qLOr1LEOJIK6eyIxOB5J-15" value="" style="line;strokeWidth=1;fillColor=none;align=left;verticalAlign=middle;spacingTop=-1;spacingLeft=3;spacingRight=3;rotatable=0;labelPosition=right;points=[];portConstraint=eastwest;labelBackgroundColor=none;" vertex="1" parent="qLOr1LEOJIK6eyIxOB5J-13">
          <mxGeometry y="104" width="200" height="8" as="geometry" />
        </mxCell>
        <mxCell id="qLOr1LEOJIK6eyIxOB5J-23" value="+ getNombre (): String" style="text;strokeColor=none;fillColor=none;align=left;verticalAlign=top;spacingLeft=4;spacingRight=4;overflow=hidden;rotatable=0;points=[[0,0.5],[1,0.5]];portConstraint=eastwest;whiteSpace=wrap;html=1;labelBackgroundColor=none;" vertex="1" parent="qLOr1LEOJIK6eyIxOB5J-13">
          <mxGeometry y="112" width="200" height="26" as="geometry" />
        </mxCell>
        <mxCell id="qLOr1LEOJIK6eyIxOB5J-26" value="+ setNombre (nombre: String)" style="text;strokeColor=none;fillColor=none;align=left;verticalAlign=top;spacingLeft=4;spacingRight=4;overflow=hidden;rotatable=0;points=[[0,0.5],[1,0.5]];portConstraint=eastwest;whiteSpace=wrap;html=1;labelBackgroundColor=none;" vertex="1" parent="qLOr1LEOJIK6eyIxOB5J-13">
          <mxGeometry y="138" width="200" height="22" as="geometry" />
        </mxCell>
        <mxCell id="qLOr1LEOJIK6eyIxOB5J-27" value="+ getEmail (): String" style="text;strokeColor=none;fillColor=none;align=left;verticalAlign=top;spacingLeft=4;spacingRight=4;overflow=hidden;rotatable=0;points=[[0,0.5],[1,0.5]];portConstraint=eastwest;whiteSpace=wrap;html=1;labelBackgroundColor=none;" vertex="1" parent="qLOr1LEOJIK6eyIxOB5J-13">
          <mxGeometry y="160" width="200" height="26" as="geometry" />
        </mxCell>
        <mxCell id="qLOr1LEOJIK6eyIxOB5J-28" value="+ setEmail(email: String)" style="text;strokeColor=none;fillColor=none;align=left;verticalAlign=top;spacingLeft=4;spacingRight=4;overflow=hidden;rotatable=0;points=[[0,0.5],[1,0.5]];portConstraint=eastwest;whiteSpace=wrap;html=1;labelBackgroundColor=none;" vertex="1" parent="qLOr1LEOJIK6eyIxOB5J-13">
          <mxGeometry y="186" width="200" height="24" as="geometry" />
        </mxCell>
        <mxCell id="qLOr1LEOJIK6eyIxOB5J-24" value="+ getLegajo (): String" style="text;strokeColor=none;fillColor=none;align=left;verticalAlign=top;spacingLeft=4;spacingRight=4;overflow=hidden;rotatable=0;points=[[0,0.5],[1,0.5]];portConstraint=eastwest;whiteSpace=wrap;html=1;labelBackgroundColor=none;" vertex="1" parent="qLOr1LEOJIK6eyIxOB5J-13">
          <mxGeometry y="210" width="200" height="26" as="geometry" />
        </mxCell>
        <mxCell id="qLOr1LEOJIK6eyIxOB5J-29" value="+ setLegajo (legajo: String)" style="text;strokeColor=none;fillColor=none;align=left;verticalAlign=top;spacingLeft=4;spacingRight=4;overflow=hidden;rotatable=0;points=[[0,0.5],[1,0.5]];portConstraint=eastwest;whiteSpace=wrap;html=1;labelBackgroundColor=none;" vertex="1" parent="qLOr1LEOJIK6eyIxOB5J-13">
          <mxGeometry y="236" width="200" height="24" as="geometry" />
        </mxCell>
        <mxCell id="qLOr1LEOJIK6eyIxOB5J-19" value="0..*&amp;nbsp;&lt;div&gt;- socios&lt;/div&gt;" style="text;html=1;align=center;verticalAlign=middle;resizable=0;points=[];autosize=1;strokeColor=none;fillColor=none;labelBackgroundColor=none;" vertex="1" parent="1">
          <mxGeometry x="130" y="313" width="60" height="40" as="geometry" />
        </mxCell>
        <mxCell id="qLOr1LEOJIK6eyIxOB5J-31" value="VoorheesExporter" style="swimlane;fontStyle=1;align=center;verticalAlign=top;childLayout=stackLayout;horizontal=1;startSize=26;horizontalStack=0;resizeParent=1;resizeParentMax=0;resizeLast=0;collapsible=1;marginBottom=0;whiteSpace=wrap;html=1;labelBackgroundColor=none;" vertex="1" parent="1">
          <mxGeometry x="480" y="370" width="200" height="76" as="geometry" />
        </mxCell>
        <mxCell id="qLOr1LEOJIK6eyIxOB5J-32" value="- exportar(socio : Socio) : String" style="text;strokeColor=none;fillColor=none;align=left;verticalAlign=top;spacingLeft=4;spacingRight=4;overflow=hidden;rotatable=0;points=[[0,0.5],[1,0.5]];portConstraint=eastwest;whiteSpace=wrap;html=1;labelBackgroundColor=none;" vertex="1" parent="qLOr1LEOJIK6eyIxOB5J-31">
          <mxGeometry y="26" width="200" height="24" as="geometry" />
        </mxCell>
        <mxCell id="qLOr1LEOJIK6eyIxOB5J-34" value="+ exportar( socios: List): String" style="text;strokeColor=none;fillColor=none;align=left;verticalAlign=top;spacingLeft=4;spacingRight=4;overflow=hidden;rotatable=0;points=[[0,0.5],[1,0.5]];portConstraint=eastwest;whiteSpace=wrap;html=1;labelBackgroundColor=none;" vertex="1" parent="qLOr1LEOJIK6eyIxOB5J-31">
          <mxGeometry y="50" width="200" height="26" as="geometry" />
        </mxCell>
        <mxCell id="qLOr1LEOJIK6eyIxOB5J-37" value="&lt;div&gt;1&lt;/div&gt;- exporter" style="text;html=1;align=center;verticalAlign=middle;resizable=0;points=[];autosize=1;strokeColor=none;fillColor=none;labelBackgroundColor=none;" vertex="1" parent="1">
          <mxGeometry x="450" y="323" width="70" height="40" as="geometry" />
        </mxCell>
        <mxCell id="qLOr1LEOJIK6eyIxOB5J-42" value="JSONSimpleAdapter" style="swimlane;fontStyle=1;align=center;verticalAlign=top;childLayout=stackLayout;horizontal=1;startSize=26;horizontalStack=0;resizeParent=1;resizeParentMax=0;resizeLast=0;collapsible=1;marginBottom=0;whiteSpace=wrap;html=1;labelBackgroundColor=none;" vertex="1" parent="1">
          <mxGeometry x="350" y="480" width="210" height="102" as="geometry" />
        </mxCell>
        <mxCell id="qLOr1LEOJIK6eyIxOB5J-53" value="+&amp;lt;&amp;lt;create&amp;gt;&amp;gt; JSONSimpleAdapter()" style="text;strokeColor=none;fillColor=none;align=left;verticalAlign=top;spacingLeft=4;spacingRight=4;overflow=hidden;rotatable=0;points=[[0,0.5],[1,0.5]];portConstraint=eastwest;whiteSpace=wrap;html=1;labelBackgroundColor=none;" vertex="1" parent="qLOr1LEOJIK6eyIxOB5J-42">
          <mxGeometry y="26" width="210" height="26" as="geometry" />
        </mxCell>
        <mxCell id="qLOr1LEOJIK6eyIxOB5J-48" value="- exportar(socio : Socio) : String" style="text;strokeColor=none;fillColor=none;align=left;verticalAlign=top;spacingLeft=4;spacingRight=4;overflow=hidden;rotatable=0;points=[[0,0.5],[1,0.5]];portConstraint=eastwest;whiteSpace=wrap;html=1;labelBackgroundColor=none;" vertex="1" parent="qLOr1LEOJIK6eyIxOB5J-42">
          <mxGeometry y="52" width="210" height="24" as="geometry" />
        </mxCell>
        <mxCell id="qLOr1LEOJIK6eyIxOB5J-49" value="+ exportar( socios: Socio[*]): String" style="text;strokeColor=none;fillColor=none;align=left;verticalAlign=top;spacingLeft=4;spacingRight=4;overflow=hidden;rotatable=0;points=[[0,0.5],[1,0.5]];portConstraint=eastwest;whiteSpace=wrap;html=1;labelBackgroundColor=none;" vertex="1" parent="qLOr1LEOJIK6eyIxOB5J-42">
          <mxGeometry y="76" width="210" height="26" as="geometry" />
        </mxCell>
        <mxCell id="qLOr1LEOJIK6eyIxOB5J-58" value="" style="endArrow=block;endSize=16;endFill=0;html=1;rounded=0;exitX=0.524;exitY=0.098;exitDx=0;exitDy=0;exitPerimeter=0;labelBackgroundColor=none;fontColor=default;" edge="1" parent="1" source="qLOr1LEOJIK6eyIxOB5J-42" target="qLOr1LEOJIK6eyIxOB5J-31">
          <mxGeometry x="0.0004" width="160" relative="1" as="geometry">
            <mxPoint x="280" y="430" as="sourcePoint" />
            <mxPoint x="440" y="430" as="targetPoint" />
            <mxPoint as="offset" />
          </mxGeometry>
        </mxCell>
        <mxCell id="qLOr1LEOJIK6eyIxOB5J-59" value="" style="endArrow=block;endSize=16;endFill=0;html=1;rounded=0;labelBackgroundColor=none;fontColor=default;" edge="1" parent="1" source="qLOr1LEOJIK6eyIxOB5J-66" target="qLOr1LEOJIK6eyIxOB5J-31">
          <mxGeometry width="160" relative="1" as="geometry">
            <mxPoint x="652.1830985915494" y="490" as="sourcePoint" />
            <mxPoint x="537" y="456" as="targetPoint" />
          </mxGeometry>
        </mxCell>
        <mxCell id="qLOr1LEOJIK6eyIxOB5J-60" value="JSONSimple" style="swimlane;fontStyle=1;align=center;verticalAlign=top;childLayout=stackLayout;horizontal=1;startSize=26;horizontalStack=0;resizeParent=1;resizeParentMax=0;resizeLast=0;collapsible=1;marginBottom=0;whiteSpace=wrap;html=1;labelBackgroundColor=none;" vertex="1" parent="1">
          <mxGeometry x="360" y="640" width="190" height="120" as="geometry" />
        </mxCell>
        <mxCell id="qLOr1LEOJIK6eyIxOB5J-61" value="- put (clave:String, value : String)" style="text;strokeColor=none;fillColor=none;align=left;verticalAlign=top;spacingLeft=4;spacingRight=4;overflow=hidden;rotatable=0;points=[[0,0.5],[1,0.5]];portConstraint=eastwest;whiteSpace=wrap;html=1;labelBackgroundColor=none;" vertex="1" parent="qLOr1LEOJIK6eyIxOB5J-60">
          <mxGeometry y="26" width="190" height="20" as="geometry" />
        </mxCell>
        <mxCell id="qLOr1LEOJIK6eyIxOB5J-62" value="- add(socio : JSONObject)" style="text;strokeColor=none;fillColor=none;align=left;verticalAlign=top;spacingLeft=4;spacingRight=4;overflow=hidden;rotatable=0;points=[[0,0.5],[1,0.5]];portConstraint=eastwest;whiteSpace=wrap;html=1;labelBackgroundColor=none;" vertex="1" parent="qLOr1LEOJIK6eyIxOB5J-60">
          <mxGeometry y="46" width="190" height="20" as="geometry" />
        </mxCell>
        <mxCell id="qLOr1LEOJIK6eyIxOB5J-63" value="-&amp;nbsp;toJSONString() : String&lt;div&gt;&lt;br&gt;&lt;/div&gt;" style="text;strokeColor=none;fillColor=none;align=left;verticalAlign=top;spacingLeft=4;spacingRight=4;overflow=hidden;rotatable=0;points=[[0,0.5],[1,0.5]];portConstraint=eastwest;whiteSpace=wrap;html=1;labelBackgroundColor=none;" vertex="1" parent="qLOr1LEOJIK6eyIxOB5J-60">
          <mxGeometry y="66" width="190" height="20" as="geometry" />
        </mxCell>
        <mxCell id="qLOr1LEOJIK6eyIxOB5J-64" value="- JSONParser ()&lt;div&gt;&lt;br&gt;&lt;/div&gt;" style="text;strokeColor=none;fillColor=none;align=left;verticalAlign=top;spacingLeft=4;spacingRight=4;overflow=hidden;rotatable=0;points=[[0,0.5],[1,0.5]];portConstraint=eastwest;whiteSpace=wrap;html=1;labelBackgroundColor=none;" vertex="1" parent="qLOr1LEOJIK6eyIxOB5J-60">
          <mxGeometry y="86" width="190" height="34" as="geometry" />
        </mxCell>
        <mxCell id="qLOr1LEOJIK6eyIxOB5J-65" value="" style="html=1;verticalAlign=bottom;endArrow=open;dashed=1;endSize=8;curved=0;rounded=0;labelBackgroundColor=none;fontColor=default;" edge="1" parent="1" source="qLOr1LEOJIK6eyIxOB5J-42" target="qLOr1LEOJIK6eyIxOB5J-60">
          <mxGeometry relative="1" as="geometry">
            <mxPoint x="480" y="620" as="sourcePoint" />
            <mxPoint x="400" y="620" as="targetPoint" />
          </mxGeometry>
        </mxCell>
        <mxCell id="qLOr1LEOJIK6eyIxOB5J-66" value="JacksonAdapter" style="swimlane;fontStyle=1;align=center;verticalAlign=top;childLayout=stackLayout;horizontal=1;startSize=26;horizontalStack=0;resizeParent=1;resizeParentMax=0;resizeLast=0;collapsible=1;marginBottom=0;whiteSpace=wrap;html=1;labelBackgroundColor=none;" vertex="1" parent="1">
          <mxGeometry x="580" y="480" width="210" height="102" as="geometry" />
        </mxCell>
        <mxCell id="qLOr1LEOJIK6eyIxOB5J-67" value="+&amp;lt;&amp;lt;create&amp;gt;&amp;gt; JacksonAdapter()" style="text;strokeColor=none;fillColor=none;align=left;verticalAlign=top;spacingLeft=4;spacingRight=4;overflow=hidden;rotatable=0;points=[[0,0.5],[1,0.5]];portConstraint=eastwest;whiteSpace=wrap;html=1;labelBackgroundColor=none;" vertex="1" parent="qLOr1LEOJIK6eyIxOB5J-66">
          <mxGeometry y="26" width="210" height="26" as="geometry" />
        </mxCell>
        <mxCell id="qLOr1LEOJIK6eyIxOB5J-68" value="- exportar(socio : Socio) : String" style="text;strokeColor=none;fillColor=none;align=left;verticalAlign=top;spacingLeft=4;spacingRight=4;overflow=hidden;rotatable=0;points=[[0,0.5],[1,0.5]];portConstraint=eastwest;whiteSpace=wrap;html=1;labelBackgroundColor=none;" vertex="1" parent="qLOr1LEOJIK6eyIxOB5J-66">
          <mxGeometry y="52" width="210" height="24" as="geometry" />
        </mxCell>
        <mxCell id="qLOr1LEOJIK6eyIxOB5J-69" value="+ exportar( socios: Socio[*]): String" style="text;strokeColor=none;fillColor=none;align=left;verticalAlign=top;spacingLeft=4;spacingRight=4;overflow=hidden;rotatable=0;points=[[0,0.5],[1,0.5]];portConstraint=eastwest;whiteSpace=wrap;html=1;labelBackgroundColor=none;" vertex="1" parent="qLOr1LEOJIK6eyIxOB5J-66">
          <mxGeometry y="76" width="210" height="26" as="geometry" />
        </mxCell>
        <mxCell id="qLOr1LEOJIK6eyIxOB5J-70" value="Jackson" style="swimlane;fontStyle=1;align=center;verticalAlign=top;childLayout=stackLayout;horizontal=1;startSize=26;horizontalStack=0;resizeParent=1;resizeParentMax=0;resizeLast=0;collapsible=1;marginBottom=0;whiteSpace=wrap;html=1;labelBackgroundColor=none;" vertex="1" parent="1">
          <mxGeometry x="590" y="640" width="190" height="120" as="geometry" />
        </mxCell>
        <mxCell id="qLOr1LEOJIK6eyIxOB5J-71" value="- put (clave:String, value : String)" style="text;strokeColor=none;fillColor=none;align=left;verticalAlign=top;spacingLeft=4;spacingRight=4;overflow=hidden;rotatable=0;points=[[0,0.5],[1,0.5]];portConstraint=eastwest;whiteSpace=wrap;html=1;labelBackgroundColor=none;" vertex="1" parent="qLOr1LEOJIK6eyIxOB5J-70">
          <mxGeometry y="26" width="190" height="20" as="geometry" />
        </mxCell>
        <mxCell id="qLOr1LEOJIK6eyIxOB5J-72" value="- add(socio : JSONObject)" style="text;strokeColor=none;fillColor=none;align=left;verticalAlign=top;spacingLeft=4;spacingRight=4;overflow=hidden;rotatable=0;points=[[0,0.5],[1,0.5]];portConstraint=eastwest;whiteSpace=wrap;html=1;labelBackgroundColor=none;" vertex="1" parent="qLOr1LEOJIK6eyIxOB5J-70">
          <mxGeometry y="46" width="190" height="20" as="geometry" />
        </mxCell>
        <mxCell id="qLOr1LEOJIK6eyIxOB5J-73" value="-&amp;nbsp;toJSONString() : String&lt;div&gt;&lt;br&gt;&lt;/div&gt;" style="text;strokeColor=none;fillColor=none;align=left;verticalAlign=top;spacingLeft=4;spacingRight=4;overflow=hidden;rotatable=0;points=[[0,0.5],[1,0.5]];portConstraint=eastwest;whiteSpace=wrap;html=1;labelBackgroundColor=none;" vertex="1" parent="qLOr1LEOJIK6eyIxOB5J-70">
          <mxGeometry y="66" width="190" height="20" as="geometry" />
        </mxCell>
        <mxCell id="qLOr1LEOJIK6eyIxOB5J-74" value="- JSONParser ()&lt;div&gt;&lt;br&gt;&lt;/div&gt;" style="text;strokeColor=none;fillColor=none;align=left;verticalAlign=top;spacingLeft=4;spacingRight=4;overflow=hidden;rotatable=0;points=[[0,0.5],[1,0.5]];portConstraint=eastwest;whiteSpace=wrap;html=1;labelBackgroundColor=none;" vertex="1" parent="qLOr1LEOJIK6eyIxOB5J-70">
          <mxGeometry y="86" width="190" height="34" as="geometry" />
        </mxCell>
        <mxCell id="qLOr1LEOJIK6eyIxOB5J-75" value="" style="html=1;verticalAlign=bottom;endArrow=open;dashed=1;endSize=8;curved=0;rounded=0;labelBackgroundColor=none;fontColor=default;" edge="1" parent="1" source="qLOr1LEOJIK6eyIxOB5J-66" target="qLOr1LEOJIK6eyIxOB5J-70">
          <mxGeometry relative="1" as="geometry">
            <mxPoint x="465" y="592" as="sourcePoint" />
            <mxPoint x="465" y="620" as="targetPoint" />
          </mxGeometry>
        </mxCell>
        <mxCell id="qLOr1LEOJIK6eyIxOB5J-76" value="&lt;font style=&quot;font-size: 14px;&quot;&gt;CLIENT&lt;/font&gt;" style="text;html=1;align=center;verticalAlign=middle;resizable=0;points=[];autosize=1;strokeColor=#6F0000;fillColor=#a20025;labelBackgroundColor=none;fontColor=#ffffff;" vertex="1" parent="1">
          <mxGeometry x="430" y="100" width="70" height="30" as="geometry" />
        </mxCell>
        <mxCell id="qLOr1LEOJIK6eyIxOB5J-77" value="&lt;font style=&quot;font-size: 14px;&quot;&gt;TARGET&lt;/font&gt;" style="text;html=1;align=center;verticalAlign=middle;resizable=0;points=[];autosize=1;strokeColor=#6F0000;fillColor=#a20025;labelBackgroundColor=none;fontColor=#ffffff;" vertex="1" parent="1">
          <mxGeometry x="600" y="333" width="80" height="30" as="geometry" />
        </mxCell>
        <mxCell id="qLOr1LEOJIK6eyIxOB5J-79" value="&lt;font style=&quot;font-size: 14px;&quot;&gt;ADAPTER&lt;/font&gt;" style="text;html=1;align=center;verticalAlign=middle;resizable=0;points=[];autosize=1;strokeColor=#6F0000;fillColor=#a20025;labelBackgroundColor=none;fontColor=#ffffff;" vertex="1" parent="1">
          <mxGeometry x="350" y="446" width="90" height="30" as="geometry" />
        </mxCell>
        <mxCell id="qLOr1LEOJIK6eyIxOB5J-80" value="&lt;font style=&quot;font-size: 14px;&quot;&gt;ADAPTER&lt;/font&gt;" style="text;html=1;align=center;verticalAlign=middle;resizable=0;points=[];autosize=1;strokeColor=#6F0000;fillColor=#a20025;labelBackgroundColor=none;fontColor=#ffffff;" vertex="1" parent="1">
          <mxGeometry x="700" y="446" width="90" height="30" as="geometry" />
        </mxCell>
        <mxCell id="qLOr1LEOJIK6eyIxOB5J-85" value="&lt;font style=&quot;font-size: 14px;&quot;&gt;ADAPTEE&lt;/font&gt;" style="text;html=1;align=center;verticalAlign=middle;resizable=0;points=[];autosize=1;strokeColor=#6F0000;fillColor=#a20025;labelBackgroundColor=none;fontColor=#ffffff;" vertex="1" parent="1">
          <mxGeometry x="355" y="600" width="90" height="30" as="geometry" />
        </mxCell>
        <mxCell id="qLOr1LEOJIK6eyIxOB5J-86" value="&lt;font style=&quot;font-size: 14px;&quot;&gt;ADAPTEE&lt;/font&gt;" style="text;html=1;align=center;verticalAlign=middle;resizable=0;points=[];autosize=1;strokeColor=#6F0000;fillColor=#a20025;labelBackgroundColor=none;fontColor=#ffffff;" vertex="1" parent="1">
          <mxGeometry x="590" y="600" width="90" height="30" as="geometry" />
        </mxCell>
      </root>
    </mxGraphModel>
  </diagram>
</mxfile>
